Coordinates
version=1
nRows=54
nColumns=12
inDegrees=yes

Units are S.I. units (second, meters, Newtons, ...)
Angles are in degrees

endheader
time	SC_y	SC_z	SC_x	AC_y	AC_z	AC_x	GH_y	GH_z	GH_yy	EL_x	PS_y
       0.0               -18.8          38.02          66.35          30.35         -8.429         -1.304          92.26          41.67          99.82          68.23          155.8
   0.01342               -18.8          38.02          66.35          30.35         -8.427         -1.306          92.24          41.66          99.79          68.22          155.8
   0.02684              -18.81          38.02          66.35          30.35         -8.425         -1.308          92.21          41.66          99.77          68.21          155.8
   0.04026              -18.81          38.02          66.35          30.35         -8.422          -1.31          92.19          41.66          99.74           68.2          155.8
   0.05368              -18.82          38.02          66.35          30.35          -8.42         -1.312          92.16          41.66          99.72           68.2          155.8
    0.0671              -18.82          38.01          66.35          30.35         -8.417         -1.314          92.14          41.65          99.69          68.19          155.8
   0.08053              -18.83          38.01          66.34          30.35         -8.414         -1.317          92.11          41.65          99.65          68.18          155.8
   0.09395              -18.84          38.01          66.34          30.35         -8.411         -1.319          92.07          41.65          99.62          68.17          155.8
    0.1074              -18.85           38.0          66.34          30.35         -8.408         -1.322          92.04          41.64          99.58          68.16          155.8
    0.1208              -18.85           38.0          66.34          30.35         -8.404         -1.325           92.0          41.64          99.55          68.15          155.8
    0.1342              -18.86           38.0          66.33          30.35         -8.401         -1.328          91.96          41.63           99.5          68.14          155.8
    0.1476              -18.87          37.99          66.33          30.35         -8.397         -1.331          91.92          41.63          99.46          68.12          155.8
    0.1611              -18.88          37.99          66.33          30.35         -8.392         -1.335          91.87          41.62          99.41          68.11          155.8
    0.1745              -18.89          37.99          66.32          30.35         -8.387         -1.339          91.82          41.62          99.36          68.09          155.8
    0.1879              -18.91          37.98          66.32          30.35         -8.382         -1.343          91.77          41.61           99.3          68.08          155.8
    0.2013              -18.92          37.98          66.31          30.35         -8.377         -1.348          91.71           41.6          99.24          68.06          155.8
    0.2147              -18.93          37.97          66.31          30.35         -8.371         -1.353          91.65           41.6          99.17          68.04          155.8
    0.2282              -18.95          37.96           66.3          30.35         -8.364         -1.358          91.58          41.59           99.1          68.02          155.8
    0.2416              -18.97          37.96           66.3          30.35         -8.357         -1.364          91.51          41.58          99.02           68.0          155.9
     0.255              -18.99          37.95          66.29          30.35         -8.349         -1.371          91.42          41.57          98.93          67.97          155.9
    0.2684              -19.01          37.94          66.28          30.35         -8.341         -1.378          91.33          41.56          98.84          67.95          155.9
    0.2818              -19.03          37.93          66.28          30.35         -8.331         -1.386          91.23          41.55          98.73          67.92          155.9
    0.2953              -19.05          37.92          66.27          30.35         -8.321         -1.395          91.12          41.54          98.62          67.88          155.9
    0.3087              -19.08          37.91          66.26          30.35         -8.309         -1.404           91.0          41.52          98.49          67.85          155.9
    0.3221              -19.11           37.9          66.25          30.35         -8.296         -1.415          90.87          41.51          98.35           67.8          155.9
    0.3355              -19.15          37.89          66.24          30.35         -8.282         -1.427          90.72          41.49          98.19          67.76          155.9
    0.3489              -19.18          37.87          66.22          30.35         -8.266          -1.44          90.55          41.47          98.01          67.71          155.9
    0.3624              -19.23          37.86          66.21          30.34         -8.248         -1.456          90.36          41.45          97.81          67.65          155.9
    0.3758              -19.28          37.84          66.19          30.34         -8.228         -1.473          90.14          41.43          97.58          67.59          155.9
    0.3892              -19.33          37.82          66.17          30.34         -8.204         -1.492           89.9           41.4          97.32          67.51          155.9
    0.4026              -19.39          37.79          66.15          30.34         -8.178         -1.514          89.62          41.37          97.03          67.43          155.9
    0.4161              -19.47          37.77          66.13          30.34         -8.148          -1.54           89.3          41.33          96.69          67.33          155.9
    0.4295              -19.55          37.73           66.1          30.34         -8.113         -1.569          88.93          41.29           96.3          67.22          155.9
    0.4429              -19.65           37.7          66.07          30.34         -8.072         -1.603           88.5          41.24          95.85          67.09          155.9
    0.4563              -19.76          37.65          66.03          30.34         -8.024         -1.643           88.0          41.18          95.32          66.94          155.9
    0.4697               -19.9           37.6          65.98          30.34         -7.968          -1.69          87.41          41.12          94.69          66.76          156.0
    0.4832              -20.06          37.54          65.93          30.34         -7.901         -1.746          86.71          41.04          93.95          66.55          156.0
    0.4966              -20.25          37.47          65.86          30.34         -7.821         -1.813          85.86          40.94          93.06          66.29          156.0
      0.51              -20.48          37.38          65.78          30.34         -7.724         -1.894          84.84          40.83          91.99          65.98          156.0
    0.5234              -20.76          37.27          65.69          30.34         -7.606         -1.993           83.6          40.69          90.67          65.61          156.1
    0.5368              -21.11          37.13          65.57          30.34          -7.46         -2.115          82.06          40.51          89.05          65.14          156.1
    0.5503              -21.54          36.97          65.42          30.34         -7.278         -2.267          80.14           40.3          87.02          64.57          156.1
    0.5637              -22.09          36.75          65.23          30.34         -7.048         -2.459          77.73          40.02          84.47          63.84          156.2
    0.5771              -22.79          36.49           65.0          30.34         -6.757         -2.703          74.66          39.68          81.23          62.91          156.3
    0.5905              -23.68          36.14          64.69          30.33         -6.384         -3.015          70.73          39.23          77.08          61.72          156.4
    0.6039              -24.82           35.7          64.31          30.33         -5.905         -3.416          65.69          38.66          71.76           60.2          156.5
    0.6174              -26.28          35.14          63.81          30.33         -5.293         -3.928          59.25          37.93          64.96          58.25          156.7
    0.6308              -28.12          34.43          63.18          30.32         -4.523         -4.572          51.16          37.02          56.41          55.81          156.9
    0.6442              -30.36          33.57          62.42          30.32         -3.586         -5.356          41.29           35.9          45.99          52.83          157.1
    0.6576              -32.95          32.57          61.54          30.31         -2.499         -6.265          29.85          34.61          33.91          49.37          157.4
     0.671              -35.76          31.49          60.59           30.3         -1.323         -7.249          17.47          33.21          20.83          45.63          157.7
    0.6845              -38.57          30.41          59.63          30.29        -0.1462         -8.234          5.086           31.8          7.756          41.89          158.0
    0.6979              -41.17          29.41          58.75          30.29         0.9405         -9.143         -6.351          30.51         -4.322          38.44          158.3
    0.7113              -43.41          28.55          57.99          30.28          1.878         -9.927         -16.22          29.39         -14.74          35.45          158.6
